<svg version="1.1" xmlns="http://www.w3.org/2000/svg" xmlns:xlink="http://www.w3.org/1999/xlink" width="145.7" height="143.1" viewBox="0,0,145.7,143.1"><g transform="translate(-167.2,-108.5)"><g data-paper-data="{&quot;isPaintingLayer&quot;:true}" stroke="none" stroke-width="1" stroke-linecap="butt" stroke-linejoin="miter" stroke-miterlimit="10" stroke-dasharray="" stroke-dashoffset="0" style="mix-blend-mode: normal"><g><g><path d="M240.6,136.9c5.5,-12.3 17.2,-20.9 30.8,-20.9c18.8,0 34,16.3 34,36.3c0,39.5 -40,51.7 -64.8,91.8c-26.3,-40.3 -64.8,-51 -64.8,-91.8c0,-20 15.2,-36.3 34,-36.3c13.6,0 25.3,8.6 30.8,20.9z" fill="#ffd499" fill-rule="evenodd"/><path d="M240.6,251.6c-2.5,0 -4.9,-1.3 -6.3,-3.4c-9.6,-14.7 -18.8,-25.2 -29.6,-35.3c-17.7,-16.6 -36.4,-32.2 -36.4,-60.6c0,-24.2 18.6,-43.8 41.5,-43.8c11.9,0 23,5.4 30.8,14.5c7.8,-9 18.9,-14.5 30.8,-14.5c22.9,0 41.5,19.7 41.5,43.8c0,27.2 -16.6,42.9 -34.2,59.5c-11.1,10.5 -22.5,21.3 -31.7,36.2c-1.4,2.2 -3.8,3.5 -6.4,3.6zM209.8,123.5c-14.6,0 -26.5,12.9 -26.5,28.8c0,21.9 12.4,33.5 29.7,49.6c8.8,8.2 18.5,17.3 27.5,29c8.9,-12 18.9,-21.5 27.9,-30c16.5,-15.6 29.5,-27.9 29.5,-48.6c0,-15.9 -11.9,-28.8 -26.5,-28.8c-10.1,0 -19.5,6.5 -23.9,16.5c-1.2,2.7 -3.9,4.5 -6.9,4.5c-3,0 -5.7,-1.8 -6.9,-4.5c-4.4,-10 -13.8,-16.5 -23.9,-16.5z" fill="#000000" fill-rule="nonzero"/></g><path d="M304.1,151.2c0,25.7 -15.7,40.6 -32.3,56.3c-10.4,9.8 -21.1,20 -29.8,34c-1.4,2.1 -3.7,3.5 -6.3,3.5h-0.1c-2.5,0 -4.9,-1.3 -6.3,-3.4c-8.9,-13.8 -19.4,-23.6 -29.6,-33.1c-16.7,-15.6 -32.5,-30.4 -32.5,-57.3c0,-23 17.7,-41.7 39.5,-41.7c11.2,0 21.6,5 29,13.4c7.4,-8.4 17.9,-13.4 29,-13.4c21.8,0 39.5,18.7 39.4,41.7z" fill="#f83131" fill-rule="evenodd"/></g><text transform="translate(188.14459,163.62245) scale(0.54796,0.54796)" font-size="40" xml:space="preserve" fill="#000000" fill-rule="nonzero" stroke="none" stroke-width="1" stroke-linecap="butt" stroke-linejoin="miter" stroke-miterlimit="10" stroke-dasharray="" stroke-dashoffset="0" font-family="Pixel" font-weight="normal" text-anchor="start" style="mix-blend-mode: normal"><tspan x="0" dy="0">HEARTS</tspan></text></g></g></svg>