<svg version="1.1" xmlns="http://www.w3.org/2000/svg" xmlns:xlink="http://www.w3.org/1999/xlink" width="512.09674" height="38.63441" viewBox="0,0,512.09674,38.63441"><g transform="translate(19.267,-171.61288)"><g data-paper-data="{&quot;isPaintingLayer&quot;:true}" fill-rule="nonzero" stroke-width="0.61313" stroke-linecap="butt" stroke-linejoin="miter" stroke-miterlimit="10" stroke-dasharray="" stroke-dashoffset="0" style="mix-blend-mode: normal"><path d="M491.23325,187.74511c-11.41456,8.77521 -57.9444,-6.51302 -82.38949,-7.64799c-21.10729,1.95478 -38.08402,6.2252 -38.39899,7.7719c-0.31463,1.93345 3.97622,5.27992 -0.3034,9.15056c-7.92497,7.09619 -45.53152,14.22284 -86.32581,12.71831c-36.82582,-1.37996 -76.52793,-14.87112 -96.37362,-18.33027c-9.99707,1.55663 -60.45647,11.14519 -99.18728,9.63855c-41.4295,-1.63293 -46.36313,-10.13367 -49.53883,-11.03256c-1.27037,-0.38524 -55.86548,3.40818 -57.62376,-4.58043c-2.07872,-9.79235 58.07235,-13.07587 90.61058,-13.10925c32.53824,-0.03338 378.23771,-0.38803 394.26892,-0.40448c19.3642,-0.01987 30.49301,11.69633 25.26166,15.82565z" fill="#ffffff" stroke="#e3deee"/><path d="M46.30759,172.73653c9.36412,-0.39615 18.09363,-0.53395 25.55356,-0.5416c32.5385,-0.03338 378.23771,-0.38803 394.26892,-0.40448c19.3642,-0.01987 30.49321,11.82518 25.26166,15.82565c-1.90238,1.54854 -5.07573,2.32509 -8.88464,2.58669c6.02967,-1.16602 9.35911,-3.61816 5.86055,-7.86737c-3.65704,-4.1202 -11.12279,-7.84995 -23.82096,-7.96577c-12.69811,-0.24488 -35.07377,2.61335 -55.54444,5.59846c-21.10729,1.95478 -38.08402,6.2252 -38.39899,7.7719c-0.7921,1.0318 0.95741,3.22104 -0.4677,5.54217c-0.94973,1.54735 -3.8037,3.61246 -8.72149,5.29273c-11.58067,4.00698 -43.15669,10.35436 -81.09545,7.94455c-37.93851,-2.4096 -69.54186,-13.46034 -93.83548,-19.2348c-24.45211,-5.64545 -78.43266,-14.99802 -140.17554,-14.54813z" fill="#d71c1c" stroke="none"/></g></g></svg>